{"title":"Heartless (2014) - Main Dhoondne Ko Zamaane Mein Video Song HD 7","uid":9457080,"size":27565531,"categoryP":"video","categoryS":"music_videos","magnet":"?xt=urn:btih:e62408865ca1e91e403730fb28b5722d379587ee&amp;dn=Heartless+%282014%29+-+Main+Dhoondne+Ko+Zamaane+Mein+Video+Song+HD+7&amp;tr=udp%3A%2F%2Ftracker.openbittorrent.com%3A80&amp;tr=udp%3A%2F%2Fopen.demonii.com%3A1337&amp;tr=udp%3A%2F%2Ftracker.coppersurfer.tk%3A6969&amp;tr=udp%3A%2F%2Fexodus.desync.com%3A6969","seeders":1,"leechers":0,"uploader":"ashish.p","files":1,"time":1389289489,"description":"General\n\nComplete name : Heartless (2014) - Main Dhoondne Ko Zamaane Mein Video Song HD 720p - Arijit Singh -AshishRocks- { DAKU RG }\nFormat : MPEG-4\nFormat profile : Base Media / Version 2\nCodec ID : mp42\nFile size : 26.3 MiB\nDuration : 2mn 26s\nOverall bit rate mode : Variable\nOverall bit rate : 1 501 Kbps\nEncoded date : UTC 2014-01-08 07:56:03\nTagged date : UTC 2014-01-08 07:56:03\n\nVideo\nID : 1\nFormat : AVC\nFormat/Info : Advanced Video Codec\nFormat profile : &lt;a class=&quot;__cf_email__&quot; href=&quot;/cdn-cgi/l/email-protection&quot; data-cfemail=&quot;d79fbeb0bf979be4f9e6&quot;&gt;[email&amp;#160;protected]&lt;/a&gt;&lt;script cf-hash='f9e31' type=&quot;text/javascript&quot;&gt;\n/* &lt;![CDATA[ */!function(){try{var t=&quot;currentScript&quot;in document?document.currentScript:function(){for(var t=document.getElementsByTagName(&quot;script&quot;),e=t.length;e--;)if(t[e].getAttribute(&quot;cf-hash&quot;))return t[e]}();if(t&amp;&amp;t.previousSibling){var e,r,n,i,c=t.previousSibling,a=c.getAttribute(&quot;data-cfemail&quot;);if(a){for(e=&quot;&quot;,r=parseInt(a.substr(0,2),16),n=2;a.length-n;n+=2)i=parseInt(a.substr(n,2),16)^r,e+=String.fromCharCode(i);e=document.createTextNode(e),c.parentNode.replaceChild(e,c)}}}catch(u){}}();/* ]]&gt; */&lt;/script&gt;\nFormat settings, CABAC : Yes\nFormat settings, ReFrames : 1 frame\nCodec ID : avc1\nCodec ID/Info : Advanced Video Coding\nDuration : 2mn 26s\nBit rate : 1 307 Kbps\nMaximum bit rate : 6 649 Kbps\nWidth : 1 280 pixels\nHeight : 720 pixels\nDisplay aspect ratio : 16:9\nFrame rate mode : Constant\nFrame rate : 25.000 fps\nColor space : YUV\nChroma subsampling : 4:2:0\nBit depth : 8 bits\nScan type : Progressive\nBits/(Pixel*Frame) : 0.057\nStream size : 22.9 MiB (87%)\nTagged date : UTC 2014-01-08 07:56:04\n\nAudio\n\nID : 2\nFormat : AAC\nFormat/Info : Advanced Audio Codec\nFormat profile : LC\nCodec ID : 40\nDuration : 2mn 26s\nBit rate mode : Variable\nBit rate : 192 Kbps\nMaximum bit rate : 203 Kbps\nChannel(s) : 2 channels\nChannel positions : Front: L R\nSampling rate : 44.1 KHz\nCompression mode : Lossy\nStream size : 3.36 MiB (13%)\nEncoded date : UTC 2014-01-08 07:56:04\nTagged date : UTC 2014-01-08 07:56:04\n","torrent":{"xt":"urn:btih:e62408865ca1e91e403730fb28b5722d379587ee","amp;dn":"Heartless+%282014%29+-+Main+Dhoondne+Ko+Zamaane+Mein+Video+Song+HD+7","amp;tr":["udp%3A%2F%2Ftracker.openbittorrent.com%3A80","udp%3A%2F%2Fopen.demonii.com%3A1337","udp%3A%2F%2Ftracker.coppersurfer.tk%3A6969","udp%3A%2F%2Fexodus.desync.com%3A6969"],"infoHash":"e62408865ca1e91e403730fb28b5722d379587ee","infoHashBuffer":{"type":"Buffer","data":[230,36,8,134,92,161,233,30,64,55,48,251,40,181,114,45,55,149,135,238]},"announce":[],"urlList":[]}}